<?xml version="1.0" encoding="UTF-8" standalone="no"?>
<!DOCTYPE svg PUBLIC "-//W3C//DTD SVG 1.1//EN" "http://www.w3.org/Graphics/SVG/1.1/DTD/svg11.dtd">
<svg width="100%" height="100%" viewBox="0 0 4000 4000" version="1.1" xmlns="http://www.w3.org/2000/svg" xmlns:xlink="http://www.w3.org/1999/xlink" xml:space="preserve" xmlns:serif="http://www.serif.com/" style="fill-rule:evenodd;clip-rule:evenodd;stroke-linejoin:round;stroke-miterlimit:2;">
    <g id="Logo" transform="matrix(1.16409,0,0,1.16409,-274.213,-245.849)">
        <g>
            <g transform="matrix(0.809287,0,0,0.895394,371.807,30.6503)">
                <path d="M513.74,3040.35L1954.6,4039.23L3395.46,3040.35C3395.46,3040.35 3395.46,201.636 3395.46,201.636L513.74,201.636L513.74,3040.35Z" style="fill:rgb(30,30,30);"/>
            </g>
        </g>
        <g id="Ash-Bird" serif:id="Ash Bird" transform="matrix(0.500746,0,0,0.500746,959.716,605.525)">
            <g transform="matrix(11.5054,0,0,11.3728,-875.131,-485.363)">
                <path d="M259.285,232.251L220.192,232.251C224.449,243.03 232.301,253.941 244.128,265.931C281.547,303.862 253.645,369.533 253.645,369.533C253.645,369.533 305.567,323.395 280.466,278.088C270.584,260.251 262.214,245.228 259.285,232.251Z" style="fill:rgb(168,168,168);"/>
            </g>
            <g transform="matrix(11.5054,0,0,11.3728,-875.131,-485.363)">
                <path d="M285.572,345.613C285.572,345.613 293.361,313.163 281.752,294.116C275.959,284.613 261.367,266.363 250,247.573C258.887,232.882 265.804,217.861 265.002,206.434C264.209,195.135 256.81,187.05 248.581,181.493C257.616,174.014 267.802,171.113 267.802,171.113C267.763,171.35 266.829,171.562 266.799,171.785C266.4,173.463 274.64,178.928 275.313,180.64C278.269,188.14 281.08,195.738 289.363,195.738C297.645,195.738 304.36,187.383 304.36,177.078C304.36,171.329 302.269,166.189 298.984,162.766C300.914,160.969 302.951,159.169 305.127,157.371C342.183,126.738 329.171,60.06 293.128,51.82C293.128,51.82 293.725,51.784 294.784,51.784C300.335,51.784 318.582,52.778 330.111,65.195C334.762,70.203 341.169,80.173 340.797,93.892C342.86,90.229 344.081,84.3 341.761,76.647C345.076,80.869 348.113,85.803 350.679,91.582C369.247,133.417 328.124,177.078 328.124,177.078C328.124,177.078 397.882,122.492 353.817,79.026C353.817,79.026 386.109,93.369 386.109,124.96C386.109,133.578 382.672,146.096 370.161,156.456C370.161,156.456 380.094,153.883 387.069,142.896C387.244,147.605 386.372,154.755 379.628,164.13C362.79,187.535 362.949,196.491 369.615,196.491C370.63,196.491 371.795,196.284 373.075,195.888C383.873,192.893 399.777,181.659 407.916,168.302C407.759,175.138 406.412,184.726 401.368,194.476C395.322,206.16 385.325,215.022 361.274,220.988C361.274,224.319 377.308,224.501 383.582,218.293C385.145,229.312 342.591,257.059 337.768,254.823C337.348,258.861 386.607,243.964 402.316,226.77C403.348,224.232 404.172,221.957 404.818,220.019L404.869,219.866C404.894,219.789 404.92,219.713 404.945,219.637C401.659,229.617 393.5,249.19 376.115,266.429C367.115,274.293 350.06,284.454 322.023,284.454C321.732,284.454 321.441,284.453 321.148,284.451C321.148,284.451 327.596,286.522 338.898,286.522C341.945,286.522 345.344,286.371 349.065,285.989C336.693,292.285 321.785,296.888 303.887,298.52C300.532,324.014 285.572,345.613 285.572,345.613ZM373.255,241.212C373.283,241.196 373.311,241.18 373.339,241.164C373.335,241.167 373.331,241.169 373.327,241.171L373.326,241.172C373.302,241.185 373.279,241.198 373.255,241.212ZM381.954,235.99C382.354,235.73 382.754,235.468 383.152,235.204C383.109,235.233 383.066,235.261 383.022,235.29L383.02,235.292C382.666,235.526 382.31,235.759 381.954,235.99ZM384.799,234.094C384.819,234.08 384.842,234.064 384.862,234.05C384.841,234.065 384.82,234.079 384.799,234.094ZM386.722,232.749C386.73,232.744 386.736,232.74 386.743,232.734C386.736,232.739 386.729,232.744 386.722,232.749ZM386.796,232.697C386.855,232.655 386.909,232.616 386.967,232.574C386.911,232.615 386.855,232.655 386.798,232.696L386.796,232.697ZM388.488,231.466C388.574,231.402 388.661,231.337 388.747,231.273C388.712,231.299 388.678,231.325 388.643,231.351C388.591,231.389 388.54,231.428 388.488,231.466ZM390.32,230.079C390.405,230.014 390.495,229.944 390.579,229.878C390.538,229.911 390.497,229.943 390.455,229.975L390.454,229.976C390.41,230.01 390.365,230.045 390.32,230.079ZM393.444,227.567C393.689,227.361 393.937,227.152 394.179,226.945C394.106,227.008 394.033,227.071 393.959,227.134L393.958,227.134C393.787,227.279 393.616,227.423 393.444,227.567ZM395.516,225.78C395.616,225.691 395.715,225.603 395.814,225.514C395.756,225.566 395.699,225.618 395.641,225.67L395.64,225.67C395.599,225.707 395.558,225.743 395.516,225.78ZM397.104,224.333C397.171,224.27 397.238,224.208 397.305,224.145L397.27,224.178C397.215,224.23 397.16,224.282 397.104,224.333ZM398.393,223.102C398.597,222.903 398.798,222.704 398.999,222.504C398.947,222.556 398.896,222.608 398.844,222.659L398.844,222.66C398.694,222.808 398.544,222.955 398.393,223.102ZM405.112,219.127C405.122,219.096 405.132,219.064 405.142,219.033C405.175,218.928 405.209,218.823 405.242,218.72C405.2,218.853 405.156,218.989 405.112,219.127ZM402.403,218.855C402.727,218.481 403.042,218.108 403.354,217.73C403.294,217.804 403.233,217.877 403.172,217.951C402.92,218.254 402.664,218.555 402.403,218.855ZM405.703,217.231C405.728,217.15 405.751,217.07 405.775,216.991C405.752,217.069 405.727,217.15 405.703,217.231ZM405.562,214.864C405.997,214.259 406.412,213.653 406.811,213.04L406.828,213.032L406.828,213.033L406.813,213.04C406.45,213.596 406.073,214.149 405.683,214.699C405.643,214.754 405.603,214.809 405.562,214.864ZM389.355,185.434C397.022,178.408 404.298,168.719 407.272,158.417C407.272,158.417 407.273,158.419 407.274,158.423C404.297,168.725 397.021,178.411 389.355,185.434ZM407.917,165.549C407.917,165.532 407.916,165.515 407.916,165.499C407.916,165.487 407.915,165.475 407.915,165.463C407.916,165.491 407.917,165.52 407.917,165.549ZM407.888,164.594C407.888,164.572 407.887,164.55 407.886,164.527C407.885,164.508 407.884,164.488 407.884,164.468C407.885,164.51 407.887,164.551 407.888,164.594Z" style="fill:rgb(59,59,59);"/>
            </g>
            <g transform="matrix(11.5054,0,0,11.3728,-875.131,-485.363)">
                <path d="M262.804,267.035C287.246,240.81 292.223,219.416 281.536,192.403C278.752,189.49 277.053,185.054 275.313,180.64C274.64,178.928 266.4,173.463 266.799,171.785C266.829,171.562 267.763,171.35 267.802,171.113C267.802,171.113 241.527,178.614 235.957,200.547C238.245,205.94 240.653,211.454 242.972,217.094C245.465,223.161 245.573,229.733 243.993,236.935C249.283,247.11 256.196,257.585 262.804,267.035Z" style="fill:url(#_Linear1);"/>
            </g>
            <g transform="matrix(11.5054,0,0,11.3728,-875.131,-485.363)">
                <path d="M240.972,212.094C227.314,178.867 210.506,150.027 233.842,124.257C233.842,124.257 231.126,114.135 210.645,119.326C210.645,119.326 221.749,110.395 243.121,106.966C273.049,102.164 291.733,126.382 291.733,137.401C291.733,137.401 270.518,124.54 261.519,136.914C254.73,146.247 270.12,167.476 275.579,178.535C291.75,211.29 287.558,235.035 257.079,265.931C219.66,303.862 247.563,369.533 247.563,369.533C247.563,369.533 195.639,323.395 220.741,278.088C236.202,250.182 247.984,229.155 240.972,212.094Z" style="fill:rgb(140,140,140);"/>
            </g>
            <g transform="matrix(11.5054,0,0,11.3728,-875.131,-485.363)">
                <path d="M214.428,345.613C214.428,345.613 199.467,324.014 196.113,298.52C178.215,296.888 163.307,292.285 150.935,285.989C154.657,286.371 158.055,286.522 161.102,286.522C172.404,286.521 178.852,284.451 178.852,284.451C178.559,284.453 178.268,284.454 177.977,284.454C149.94,284.454 132.886,274.293 123.884,266.429C100.449,243.189 93.778,215.705 93.21,213.204L93.241,213.339L93.267,213.449L93.294,213.562L93.338,213.745L93.353,213.804L93.402,214.004L93.459,214.227L93.509,214.423C93.532,214.514 93.558,214.612 93.584,214.71C93.609,214.805 93.636,214.906 93.664,215.008C93.711,215.186 93.763,215.375 93.819,215.576C93.851,215.689 93.882,215.805 93.917,215.926C93.958,216.071 94.001,216.222 94.046,216.377C94.078,216.489 94.113,216.607 94.147,216.723C94.222,216.978 94.301,217.243 94.385,217.52C94.428,217.66 94.471,217.801 94.516,217.947C94.571,218.122 94.626,218.299 94.684,218.482C94.74,218.66 94.8,218.848 94.86,219.033C94.892,219.131 94.92,219.224 94.953,219.323C95.01,219.499 95.072,219.683 95.132,219.866L95.184,220.019C95.83,221.957 96.654,224.232 97.686,226.77C110.814,240.722 158.789,256.43 162.232,254.823C157.989,254.271 117.496,226.053 116.418,218.293C122.815,222.716 138.898,223.595 138.726,220.988C114.674,215.022 104.678,206.16 98.632,194.476C89.729,177.271 92.342,160.566 92.691,158.608L92.674,158.708L92.652,158.834L92.627,158.997L92.601,159.155L92.571,159.362L92.542,159.56L92.506,159.821L92.477,160.043C92.464,160.145 92.451,160.251 92.438,160.361L92.409,160.604C92.395,160.723 92.382,160.847 92.369,160.974C92.359,161.064 92.35,161.157 92.34,161.251C92.327,161.382 92.314,161.517 92.301,161.655C92.292,161.757 92.283,161.863 92.273,161.968C92.261,162.116 92.249,162.265 92.236,162.42C92.228,162.528 92.22,162.641 92.212,162.753C92.201,162.915 92.189,163.077 92.179,163.246C92.172,163.365 92.165,163.489 92.159,163.611C92.149,163.787 92.139,163.961 92.13,164.145C92.125,164.269 92.121,164.399 92.115,164.527C92.108,164.718 92.1,164.907 92.094,165.105C92.09,165.233 92.088,165.367 92.085,165.498C92.081,165.706 92.075,165.913 92.073,166.128C92.071,166.244 92.072,166.366 92.071,166.483C92.067,167.065 92.069,167.667 92.084,168.298C100.216,181.647 116.101,192.874 126.9,195.881C128.188,196.28 129.364,196.491 130.384,196.491C137.05,196.489 137.21,187.535 120.372,164.13C113.628,154.755 112.756,147.605 112.931,142.896C119.906,153.883 129.839,156.456 129.839,156.456C117.328,146.096 113.89,133.578 113.89,124.96C113.89,93.369 146.183,79.026 146.183,79.026C102.118,122.492 171.876,177.078 171.876,177.078C171.876,177.078 130.753,133.417 149.322,91.582C151.887,85.803 154.924,80.869 158.239,76.647C155.919,84.3 157.14,90.229 159.203,93.892C158.831,80.173 165.238,70.203 169.889,65.195C181.418,52.778 199.664,51.784 205.215,51.784C206.274,51.784 206.872,51.82 206.872,51.82C170.83,60.06 157.817,126.738 194.873,157.371C197.048,159.169 199.086,160.969 201.016,162.766C197.73,166.189 195.639,171.329 195.639,177.078C195.639,187.383 202.354,195.738 210.637,195.738C218.92,195.738 225.635,187.383 225.635,177.078C225.635,175.239 225.418,173.463 225.02,171.785C224.988,171.562 224.964,171.35 224.925,171.113C224.925,171.113 237.505,174.014 248.581,181.493C256.81,187.05 264.209,195.135 265.002,206.434C265.804,217.861 258.887,232.882 250,247.573C238.633,266.363 224.041,284.613 218.249,294.116C206.638,313.163 214.428,345.613 214.428,345.613ZM93.396,213.355C93.392,213.35 93.389,213.344 93.385,213.339C93.388,213.343 93.393,213.351 93.396,213.355ZM93.37,213.316C93.325,213.248 93.281,213.181 93.237,213.114C93.282,213.182 93.325,213.248 93.37,213.316ZM93.208,213.197C93.188,213.111 93.176,213.055 93.171,213.032L93.196,213.142L93.208,213.197ZM93.234,213.108C93.227,213.099 93.221,213.089 93.215,213.079C93.221,213.088 93.228,213.099 93.234,213.108ZM92.982,159.268L92.982,159.267L92.982,159.268ZM92.967,159.218C92.966,159.216 92.965,159.213 92.964,159.211C92.965,159.213 92.966,159.216 92.967,159.218ZM92.95,159.164C92.949,159.162 92.948,159.159 92.948,159.156C92.948,159.158 92.949,159.162 92.95,159.164ZM92.933,159.111C92.932,159.107 92.932,159.105 92.931,159.102C92.932,159.106 92.932,159.106 92.933,159.111ZM92.916,159.055L92.916,159.053L92.916,159.055ZM92.855,158.852C92.854,158.848 92.852,158.844 92.851,158.841C92.853,158.845 92.853,158.847 92.855,158.852ZM92.84,158.804C92.838,158.797 92.836,158.791 92.834,158.784C92.836,158.79 92.838,158.797 92.84,158.804ZM92.824,158.751C92.822,158.743 92.82,158.736 92.818,158.728C92.82,158.736 92.822,158.742 92.824,158.751ZM92.808,158.696C92.805,158.687 92.803,158.679 92.801,158.671C92.803,158.679 92.806,158.688 92.808,158.696ZM92.792,158.641C92.789,158.632 92.786,158.623 92.784,158.614C92.786,158.622 92.789,158.632 92.792,158.641ZM92.692,158.605C92.701,158.551 92.709,158.508 92.715,158.478L92.711,158.503L92.692,158.605ZM92.775,158.585C92.773,158.576 92.769,158.565 92.767,158.556C92.77,158.566 92.772,158.575 92.775,158.585ZM92.759,158.529C92.756,158.518 92.753,158.508 92.75,158.497C92.753,158.507 92.756,158.519 92.759,158.529ZM92.743,158.473C92.737,158.454 92.732,158.436 92.727,158.417L92.725,158.428C92.726,158.421 92.727,158.417 92.727,158.417C92.732,158.436 92.737,158.454 92.743,158.473Z" style="fill:rgb(170,170,170);"/>
            </g>
            <g transform="matrix(11.5054,0,0,11.3728,-875.131,-485.363)">
                <path d="M265.002,206.434C263.143,179.926 224.925,171.113 224.925,171.113L224.96,171.365C235.343,175.748 255.622,186.769 257.002,206.434C258.829,232.476 225.569,275.184 215.248,292.116C203.639,311.163 214.428,345.613 214.428,345.613C214.428,345.613 206.639,313.163 218.248,294.116C228.569,277.184 266.83,232.476 265.002,206.434Z" style="fill:url(#_Linear2);"/>
            </g>
            <g transform="matrix(11.5054,0,0,11.3728,-875.131,-485.363)">
                <path d="M188.873,155.371C191.048,157.169 193.086,158.969 195.016,160.766C191.73,164.189 189.639,169.329 189.639,175.078C189.639,185.042 200.215,194.941 208.118,195.471L208.052,195.442C201.367,193.994 196.211,187.053 195.696,178.485C195.659,178.014 195.639,177.544 195.639,177.078C195.639,171.329 197.73,166.189 201.016,162.766C199.086,160.969 197.048,159.169 194.873,157.371C157.817,126.738 170.83,60.06 206.872,51.82C206.872,51.82 198.195,52.24 189.75,57C160.826,73.305 155.093,127.446 188.873,155.371Z" style="fill:url(#_Linear3);"/>
            </g>
            <g transform="matrix(11.5054,0,0,11.3728,-875.131,-485.363)">
                <path d="M171.876,177.078C171.876,177.078 171.33,176.429 170.303,175.304C171.292,176.457 171.876,177.078 171.876,177.078Z" style="fill:url(#_Linear4);"/>
            </g>
            <g transform="matrix(11.5054,0,0,11.3728,-875.131,-485.363)">
                <path d="M171.876,177.078C171.876,177.078 163.858,170.8 154.977,160.813L154.976,160.812C154.721,160.526 154.466,160.236 154.21,159.944L154.042,159.751C153.604,159.249 153.166,158.738 152.726,158.219C152.639,158.117 152.552,158.016 152.466,157.913C152.242,157.647 152.018,157.379 151.793,157.108C151.679,156.971 151.565,156.832 151.451,156.693C151.091,156.255 150.731,155.812 150.371,155.363C150.233,155.192 150.096,155.021 149.959,154.848C149.759,154.596 149.56,154.343 149.361,154.088C149.198,153.88 149.035,153.669 148.872,153.458C148.583,153.083 148.295,152.706 148.008,152.324C147.83,152.088 147.652,151.851 147.475,151.612C147.3,151.376 147.125,151.141 146.952,150.902C146.74,150.613 146.53,150.321 146.32,150.028C146.101,149.723 145.884,149.416 145.667,149.107C145.461,148.815 145.257,148.522 145.054,148.227C144.902,148.007 144.751,147.786 144.601,147.564C144.342,147.181 144.084,146.795 143.828,146.407C143.682,146.185 143.537,145.961 143.392,145.737C143.166,145.39 142.942,145.041 142.721,144.689C142.595,144.49 142.47,144.291 142.346,144.091C142.05,143.615 141.757,143.136 141.468,142.654C141.38,142.507 141.295,142.358 141.208,142.21C140.978,141.821 140.75,141.429 140.526,141.036C140.42,140.851 140.314,140.666 140.21,140.479C139.926,139.975 139.646,139.467 139.372,138.956C139.298,138.818 139.228,138.68 139.154,138.542C138.931,138.119 138.71,137.694 138.494,137.267C138.406,137.095 138.319,136.923 138.233,136.75C137.968,136.219 137.708,135.686 137.455,135.148C137.395,135.02 137.336,134.89 137.276,134.761C137.065,134.307 136.859,133.851 136.658,133.393C136.588,133.234 136.518,133.076 136.449,132.917C136.209,132.362 135.976,131.805 135.751,131.245C135.702,131.122 135.655,130.999 135.606,130.876C135.416,130.395 135.232,129.912 135.053,129.427C135,129.282 134.945,129.136 134.892,128.99C134.685,128.415 134.485,127.838 134.294,127.258C134.254,127.138 134.218,127.018 134.179,126.897C134.018,126.396 133.862,125.892 133.714,125.387C133.674,125.251 133.634,125.116 133.595,124.98C133.426,124.389 133.267,123.796 133.117,123.201C133.087,123.081 133.06,122.961 133.03,122.841C132.903,122.32 132.784,121.798 132.672,121.275C132.646,121.151 132.618,121.027 132.593,120.903C132.468,120.298 132.355,119.691 132.252,119.083C132.232,118.962 132.214,118.841 132.195,118.721C132.109,118.187 132.032,117.651 131.964,117.114C131.949,116.998 131.933,116.883 131.918,116.767C131.845,116.152 131.784,115.537 131.734,114.92C131.724,114.795 131.717,114.67 131.708,114.545C131.669,114.001 131.639,113.456 131.62,112.911C131.616,112.802 131.61,112.694 131.606,112.585C131.589,111.964 131.585,111.341 131.594,110.718C131.596,110.591 131.601,110.463 131.604,110.336C131.617,109.781 131.64,109.226 131.674,108.67C131.681,108.572 131.684,108.473 131.691,108.375C131.734,107.749 131.794,107.123 131.866,106.496C131.882,106.362 131.899,106.229 131.916,106.097C131.986,105.536 132.067,104.976 132.162,104.416C132.177,104.324 132.189,104.233 132.206,104.142C132.315,103.514 132.442,102.887 132.583,102.259C132.614,102.122 132.647,101.984 132.679,101.847C132.813,101.279 132.958,100.712 133.117,100.146L133.183,99.904C133.363,99.277 133.563,98.65 133.777,98.023C133.826,97.881 133.876,97.739 133.927,97.597C134.129,97.024 134.343,96.452 134.574,95.881L134.657,95.669C134.913,95.044 135.191,94.42 135.482,93.797C135.551,93.651 135.622,93.505 135.691,93.358C135.97,92.781 136.26,92.204 136.57,91.627L136.661,91.452C136.998,90.831 137.358,90.211 137.732,89.592C137.822,89.443 137.915,89.294 138.007,89.146C138.369,88.561 138.745,87.977 139.142,87.394L139.229,87.264C139.651,86.647 140.1,86.033 140.562,85.419C140.674,85.27 140.789,85.122 140.903,84.973C141.363,84.376 141.836,83.781 142.334,83.187L142.39,83.119C142.904,82.509 143.446,81.901 144.002,81.294C144.14,81.145 144.278,80.996 144.417,80.846C144.987,80.238 145.57,79.63 146.183,79.026C146.183,79.026 138.438,82.475 130.535,89.695C107.687,138.5 171.876,177.078 171.876,177.078Z" style="fill:url(#_Linear5);"/>
            </g>
            <g transform="matrix(11.5054,0,0,11.3728,-875.131,-485.363)">
                <path d="M311.129,155.371C308.954,157.169 306.916,158.969 304.986,160.766C308.272,164.189 310.363,169.329 310.363,175.078C310.363,185.042 299.787,194.941 291.885,195.47L291.95,195.442C298.635,193.994 303.79,187.053 304.306,178.485C304.343,178.013 304.363,177.544 304.363,177.078C304.363,171.329 302.272,166.189 298.986,162.766C300.916,160.969 302.954,159.169 305.129,157.371C342.186,126.738 329.173,60.06 293.131,51.82C293.131,51.82 301.808,52.24 310.252,57C339.177,73.305 344.909,127.446 311.129,155.371Z" style="fill:url(#_Linear6);"/>
            </g>
            <g transform="matrix(11.5054,0,0,11.3728,-875.131,-485.363)">
                <path d="M328.126,177.078C328.126,177.078 328.673,176.429 329.699,175.304C328.71,176.457 328.126,177.078 328.126,177.078Z" style="fill:url(#_Linear7);"/>
            </g>
            <g transform="matrix(11.5054,0,0,11.3728,-875.131,-485.363)">
                <path d="M328.126,177.078C328.126,177.078 336.145,170.8 345.025,160.813L345.026,160.812C345.281,160.526 345.536,160.236 345.792,159.944L345.96,159.751C346.398,159.249 346.837,158.738 347.276,158.219C347.363,158.117 347.45,158.016 347.536,157.913C347.761,157.647 347.984,157.379 348.209,157.108C348.323,156.971 348.437,156.832 348.551,156.693C348.911,156.255 349.271,155.812 349.631,155.363C349.769,155.192 349.906,155.021 350.043,154.848C350.243,154.596 350.442,154.343 350.642,154.088C350.805,153.88 350.967,153.669 351.13,153.458C351.419,153.083 351.707,152.706 351.994,152.324C352.172,152.088 352.351,151.851 352.527,151.612C352.702,151.376 352.877,151.141 353.05,150.903C353.262,150.613 353.472,150.321 353.682,150.028C353.901,149.723 354.118,149.417 354.335,149.107C354.541,148.815 354.745,148.522 354.948,148.227C355.1,148.007 355.251,147.786 355.4,147.564C355.66,147.181 355.918,146.795 356.174,146.407C356.32,146.185 356.466,145.961 356.61,145.737C356.836,145.39 357.06,145.041 357.281,144.689C357.407,144.49 357.532,144.291 357.656,144.091C357.952,143.615 358.245,143.136 358.534,142.654C358.622,142.507 358.707,142.358 358.794,142.21C359.024,141.821 359.252,141.429 359.477,141.036C359.582,140.851 359.688,140.666 359.792,140.479C360.076,139.975 360.355,139.467 360.63,138.956C360.703,138.818 360.774,138.68 360.848,138.542C361.071,138.119 361.292,137.694 361.509,137.267C361.596,137.095 361.683,136.923 361.77,136.75C362.034,136.219 362.294,135.686 362.547,135.148C362.607,135.02 362.666,134.89 362.726,134.761C362.937,134.307 363.143,133.851 363.344,133.393C363.414,133.234 363.484,133.076 363.553,132.917C363.793,132.362 364.026,131.805 364.251,131.245C364.3,131.122 364.348,130.999 364.396,130.876C364.586,130.395 364.771,129.912 364.949,129.427C365.003,129.282 365.058,129.136 365.11,128.99C365.317,128.415 365.518,127.838 365.708,127.258C365.747,127.138 365.784,127.018 365.823,126.898C365.984,126.396 366.14,125.892 366.288,125.387C366.327,125.251 366.368,125.116 366.407,124.98C366.576,124.389 366.735,123.796 366.885,123.201C366.915,123.081 366.942,122.961 366.972,122.841C367.099,122.32 367.218,121.798 367.33,121.275C367.356,121.151 367.384,121.027 367.409,120.903C367.533,120.298 367.647,119.691 367.75,119.083C367.77,118.962 367.788,118.841 367.807,118.721C367.893,118.187 367.97,117.651 368.038,117.114C368.053,116.999 368.069,116.883 368.084,116.767C368.157,116.152 368.219,115.537 368.268,114.92C368.278,114.795 368.285,114.67 368.294,114.545C368.333,114.001 368.363,113.456 368.383,112.911C368.387,112.802 368.393,112.694 368.396,112.585C368.413,111.964 368.417,111.341 368.407,110.718C368.406,110.591 368.401,110.463 368.398,110.336C368.386,109.781 368.362,109.226 368.328,108.67C368.321,108.572 368.317,108.473 368.311,108.375C368.268,107.749 368.208,107.123 368.136,106.496C368.12,106.363 368.103,106.229 368.086,106.097C368.016,105.536 367.935,104.976 367.841,104.416C367.825,104.324 367.813,104.233 367.797,104.142C367.688,103.514 367.56,102.887 367.419,102.259C367.389,102.122 367.355,101.984 367.322,101.847C367.189,101.28 367.045,100.712 366.885,100.146L366.819,99.904C366.639,99.277 366.438,98.65 366.225,98.023C366.177,97.881 366.126,97.739 366.075,97.597C365.873,97.024 365.659,96.452 365.428,95.881L365.345,95.669C365.089,95.044 364.812,94.42 364.52,93.797C364.451,93.651 364.381,93.505 364.311,93.358C364.032,92.781 363.742,92.204 363.433,91.627L363.341,91.452C363.004,90.831 362.644,90.211 362.27,89.592C362.18,89.443 362.088,89.295 361.995,89.146C361.633,88.561 361.257,87.977 360.86,87.394L360.773,87.264C360.351,86.647 359.902,86.033 359.44,85.419C359.328,85.27 359.213,85.122 359.099,84.973C358.639,84.376 358.166,83.781 357.668,83.187L357.611,83.119C357.098,82.509 356.556,81.901 356,81.294C355.862,81.145 355.725,80.996 355.585,80.846C355.016,80.238 354.433,79.63 353.819,79.026C353.819,79.026 361.563,82.476 369.467,89.695C392.315,138.5 328.126,177.078 328.126,177.078Z" style="fill:url(#_Linear8);"/>
            </g>
        </g>
        <g>
            <g transform="matrix(0.684294,-0.521292,0.521292,0.684294,150.26,1921.25)">
                <path d="M997.1,2742L1034.52,2742L1043.69,2719.07L1093.21,2719.07L1102.56,2742L1140.71,2742L1086.06,2612.69L1051.76,2612.69L997.1,2742ZM1054.14,2691.38L1068.63,2654.88L1082.94,2691.38L1054.14,2691.38Z" style="fill:rgb(211,211,211);fill-rule:nonzero;"/>
                <path d="M1201.79,2744.2C1232.97,2744.2 1253.69,2728.61 1253.69,2702.38L1253.69,2702.02C1253.69,2677.99 1235.35,2668.45 1205.82,2662.03C1188.03,2658 1183.63,2655.43 1183.63,2649.56L1183.63,2649.19C1183.63,2644.61 1187.85,2640.94 1196.47,2640.94C1207.84,2640.94 1220.68,2645.34 1232.42,2653.6L1250.21,2628.47C1236.27,2617.28 1219.21,2611.41 1197.39,2611.41C1166.57,2611.41 1147.68,2628.65 1147.68,2652.49L1147.68,2652.86C1147.68,2679.27 1168.78,2686.98 1196.1,2693.21C1213.53,2697.25 1217.75,2700.18 1217.75,2705.5L1217.75,2705.87C1217.75,2711.37 1212.61,2714.67 1203.07,2714.67C1188.22,2714.67 1174.09,2709.35 1161.44,2699.26L1141.63,2722.93C1157.4,2737.05 1179.05,2744.2 1201.79,2744.2Z" style="fill:rgb(211,211,211);fill-rule:nonzero;"/>
                <path d="M1270.93,2742L1306.52,2742L1306.52,2693.21L1352.19,2693.21L1352.19,2742L1387.77,2742L1387.77,2613.61L1352.19,2613.61L1352.19,2661.66L1306.52,2661.66L1306.52,2613.61L1270.93,2613.61L1270.93,2742Z" style="fill:rgb(211,211,211);fill-rule:nonzero;"/>
                <path d="M1410.51,2742L1476.72,2742C1507.35,2742 1525.33,2728.61 1525.33,2706.6L1525.33,2706.24C1525.33,2688.81 1515.42,2680.01 1499.83,2674.87C1511.21,2669.92 1519.64,2661.12 1519.64,2646.26L1519.64,2645.89C1519.64,2637.09 1516.53,2630.3 1511.39,2625.17C1503.87,2617.65 1492.5,2613.61 1476.36,2613.61L1410.51,2613.61L1410.51,2742ZM1445.18,2664.78L1445.18,2642.22L1468.29,2642.22C1478.92,2642.22 1484.43,2646.26 1484.43,2653.23L1484.43,2653.6C1484.43,2661.12 1478.38,2664.78 1467.55,2664.78L1445.18,2664.78ZM1445.18,2713.39L1445.18,2689.73L1472.32,2689.73C1484.24,2689.73 1489.75,2694.31 1489.75,2701.28L1489.75,2701.65C1489.75,2709.17 1483.51,2713.39 1472.69,2713.39L1445.18,2713.39Z" style="fill:rgb(211,211,211);fill-rule:nonzero;"/>
                <rect x="1542.39" y="2613.61" width="35.765" height="128.389" style="fill:rgb(211,211,211);fill-rule:nonzero;"/>
                <path d="M1601.63,2742L1637.21,2742L1637.21,2703.12L1652.8,2703.12L1678.66,2742L1719.75,2742L1689.12,2697.25C1705.07,2690.46 1715.53,2677.44 1715.53,2657.81L1715.53,2657.45C1715.53,2644.79 1711.67,2634.89 1704.16,2627.55C1695.54,2618.75 1681.96,2613.61 1662.34,2613.61L1601.63,2613.61L1601.63,2742ZM1637.21,2675.24L1637.21,2644.43L1660.5,2644.43C1672.42,2644.43 1679.76,2649.56 1679.76,2659.65L1679.76,2660.01C1679.76,2669.37 1672.79,2675.24 1660.69,2675.24L1637.21,2675.24Z" style="fill:rgb(211,211,211);fill-rule:nonzero;"/>
                <path d="M1733.5,2742L1782.29,2742C1828.51,2742 1855.47,2714.49 1855.47,2677.44L1855.47,2677.07C1855.47,2640.02 1828.88,2613.61 1783.02,2613.61L1733.5,2613.61L1733.5,2742ZM1769.08,2710.45L1769.08,2645.16L1783.57,2645.16C1804.85,2645.16 1818.97,2657.08 1818.97,2677.62L1818.97,2677.99C1818.97,2698.72 1804.85,2710.45 1783.57,2710.45L1769.08,2710.45Z" style="fill:rgb(211,211,211);fill-rule:nonzero;"/>
                <path d="M1922.42,2744.2C1953.6,2744.2 1974.32,2728.61 1974.32,2702.38L1974.32,2702.02C1974.32,2677.99 1955.98,2668.45 1926.45,2662.03C1908.66,2658 1904.26,2655.43 1904.26,2649.56L1904.26,2649.19C1904.26,2644.61 1908.48,2640.94 1917.1,2640.94C1928.47,2640.94 1941.31,2645.34 1953.05,2653.6L1970.84,2628.47C1956.9,2617.28 1939.84,2611.41 1918.01,2611.41C1887.2,2611.41 1868.31,2628.65 1868.31,2652.49L1868.31,2652.86C1868.31,2679.27 1889.4,2686.98 1916.73,2693.21C1934.15,2697.25 1938.37,2700.18 1938.37,2705.5L1938.37,2705.87C1938.37,2711.37 1933.24,2714.67 1923.7,2714.67C1908.84,2714.67 1894.72,2709.35 1882.07,2699.26L1862.26,2722.93C1878.03,2737.05 1899.67,2744.2 1922.42,2744.2Z" style="fill:rgb(211,211,211);fill-rule:nonzero;"/>
            </g>
            <g transform="matrix(0.544464,0.41477,-0.41477,0.544464,1512.11,820.407)">
                <path d="M1010.28,2742L1054.97,2742L1054.97,2684.41L1131.21,2684.41L1131.21,2647.33L1054.97,2647.33L1054.97,2619.92L1139.28,2619.92L1139.28,2580.76L1010.28,2580.76L1010.28,2742Z" style="fill:rgb(211,211,211);fill-rule:nonzero;"/>
                <path d="M1240.63,2745.22C1290.38,2745.22 1327.7,2707.68 1327.7,2661.38L1327.7,2660.92C1327.7,2614.62 1290.85,2577.53 1241.09,2577.53C1191.34,2577.53 1154.02,2615.08 1154.02,2661.38L1154.02,2661.84C1154.02,2708.14 1190.87,2745.22 1240.63,2745.22ZM1241.09,2704.91C1216.67,2704.91 1199.86,2684.64 1199.86,2661.38L1199.86,2660.92C1199.86,2637.65 1216.21,2617.84 1240.63,2617.84C1265.28,2617.84 1282.09,2638.11 1282.09,2661.38L1282.09,2661.84C1282.09,2685.1 1265.74,2704.91 1241.09,2704.91Z" style="fill:rgb(211,211,211);fill-rule:nonzero;"/>
                <path d="M1350.97,2742L1395.65,2742L1395.65,2693.17L1415.23,2693.17L1447.71,2742L1499.31,2742L1460.84,2685.8C1480.88,2677.27 1494.01,2660.92 1494.01,2636.27L1494.01,2635.81C1494.01,2619.92 1489.17,2607.48 1479.73,2598.26C1468.9,2587.21 1451.86,2580.76 1427.21,2580.76L1350.97,2580.76L1350.97,2742ZM1395.65,2658.15L1395.65,2619.45L1424.91,2619.45C1439.88,2619.45 1449.09,2625.91 1449.09,2638.57L1449.09,2639.03C1449.09,2650.78 1440.34,2658.15 1425.14,2658.15L1395.65,2658.15Z" style="fill:rgb(211,211,211);fill-rule:nonzero;"/>
                <path d="M1579.93,2744.76C1619.09,2744.76 1645.12,2725.18 1645.12,2692.24L1645.12,2691.78C1645.12,2661.61 1622.09,2649.63 1585,2641.57C1562.65,2636.5 1557.13,2633.28 1557.13,2625.91L1557.13,2625.44C1557.13,2619.68 1562.42,2615.08 1573.25,2615.08C1587.53,2615.08 1603.66,2620.61 1618.4,2630.97L1640.74,2599.41C1623.24,2585.36 1601.81,2577.99 1574.4,2577.99C1535.7,2577.99 1511.98,2599.64 1511.98,2629.59L1511.98,2630.05C1511.98,2663.22 1538.47,2672.9 1572.79,2680.73C1594.67,2685.8 1599.97,2689.48 1599.97,2696.16L1599.97,2696.62C1599.97,2703.53 1593.52,2707.68 1581.54,2707.68C1562.89,2707.68 1545.15,2701 1529.26,2688.33L1504.38,2718.04C1524.19,2735.78 1551.37,2744.76 1579.93,2744.76Z" style="fill:rgb(211,211,211);fill-rule:nonzero;"/>
                <path d="M1650.42,2742L1697.41,2742L1708.93,2713.21L1771.12,2713.21L1782.87,2742L1830.78,2742L1762.14,2579.61L1719.06,2579.61L1650.42,2742ZM1722.06,2678.42L1740.25,2632.59L1758.22,2678.42L1722.06,2678.42Z" style="fill:rgb(211,211,211);fill-rule:nonzero;"/>
                <path d="M1846.44,2742L1891.13,2742L1891.13,2700.31L1907.49,2682.11L1948.03,2742L2001.7,2742L1938.58,2650.09L1999.62,2580.76L1946.64,2580.76L1891.13,2646.18L1891.13,2580.76L1846.44,2580.76L1846.44,2742Z" style="fill:rgb(211,211,211);fill-rule:nonzero;"/>
                <path d="M2014.6,2742L2145.43,2742L2145.43,2703.99L2058.82,2703.99L2058.82,2678.42L2136.22,2678.42L2136.22,2643.18L2058.82,2643.18L2058.82,2618.76L2144.28,2618.76L2144.28,2580.76L2014.6,2580.76L2014.6,2742Z" style="fill:rgb(211,211,211);fill-rule:nonzero;"/>
                <path d="M2168.24,2742L2212.47,2742L2212.47,2653.55L2281.34,2742L2320.5,2742L2320.5,2580.76L2276.27,2580.76L2276.27,2665.99L2209.93,2580.76L2168.24,2580.76L2168.24,2742Z" style="fill:rgb(211,211,211);fill-rule:nonzero;"/>
            </g>
        </g>
    </g>
    <defs>
        <linearGradient id="_Linear1" x1="0" y1="0" x2="1" y2="0" gradientUnits="userSpaceOnUse" gradientTransform="matrix(5.87354e-16,-95.9221,95.9221,5.87354e-16,261.41,267.035)"><stop offset="0" style="stop-color:rgb(221,56,38);stop-opacity:1"/><stop offset="0.6" style="stop-color:rgb(244,124,39);stop-opacity:1"/><stop offset="1" style="stop-color:rgb(250,167,65);stop-opacity:1"/></linearGradient>
        <linearGradient id="_Linear2" x1="0" y1="0" x2="1" y2="0" gradientUnits="userSpaceOnUse" gradientTransform="matrix(1.0685e-15,-174.5,174.5,1.0685e-15,237.466,345.613)"><stop offset="0" style="stop-color:rgb(221,56,38);stop-opacity:1"/><stop offset="0.6" style="stop-color:rgb(244,124,39);stop-opacity:1"/><stop offset="1" style="stop-color:rgb(250,167,65);stop-opacity:1"/></linearGradient>
        <linearGradient id="_Linear3" x1="0" y1="0" x2="1" y2="0" gradientUnits="userSpaceOnUse" gradientTransform="matrix(8.79607e-16,-143.651,143.651,8.79607e-16,186.925,195.47)"><stop offset="0" style="stop-color:rgb(250,167,65);stop-opacity:1"/><stop offset="0.7" style="stop-color:rgb(241,90,34);stop-opacity:1"/><stop offset="1" style="stop-color:rgb(221,56,38);stop-opacity:1"/></linearGradient>
        <linearGradient id="_Linear4" x1="0" y1="0" x2="1" y2="0" gradientUnits="userSpaceOnUse" gradientTransform="matrix(1.08603e-17,-1.77362,1.77362,1.08603e-17,171.09,177.078)"><stop offset="0" style="stop-color:rgb(250,167,65);stop-opacity:1"/><stop offset="0.7" style="stop-color:rgb(241,90,34);stop-opacity:1"/><stop offset="1" style="stop-color:rgb(221,56,38);stop-opacity:1"/></linearGradient>
        <linearGradient id="_Linear5" x1="0" y1="0" x2="1" y2="0" gradientUnits="userSpaceOnUse" gradientTransform="matrix(6.00398e-16,-98.0524,98.0524,6.00398e-16,148.747,177.078)"><stop offset="0" style="stop-color:rgb(250,167,65);stop-opacity:1"/><stop offset="0.7" style="stop-color:rgb(241,90,34);stop-opacity:1"/><stop offset="1" style="stop-color:rgb(221,56,38);stop-opacity:1"/></linearGradient>
        <linearGradient id="_Linear6" x1="0" y1="0" x2="1" y2="0" gradientUnits="userSpaceOnUse" gradientTransform="matrix(6.44948e-09,143.651,143.651,-6.44948e-09,313.077,195.47)"><stop offset="0" style="stop-color:rgb(250,167,65);stop-opacity:1"/><stop offset="0.7" style="stop-color:rgb(241,90,34);stop-opacity:1"/><stop offset="1" style="stop-color:rgb(221,56,38);stop-opacity:1"/></linearGradient>
        <linearGradient id="_Linear7" x1="0" y1="0" x2="1" y2="0" gradientUnits="userSpaceOnUse" gradientTransform="matrix(7.96301e-12,1.77362,1.77362,-7.96301e-12,328.913,177.078)"><stop offset="0" style="stop-color:rgb(250,167,65);stop-opacity:1"/><stop offset="0.7" style="stop-color:rgb(241,90,34);stop-opacity:1"/><stop offset="1" style="stop-color:rgb(221,56,38);stop-opacity:1"/></linearGradient>
        <linearGradient id="_Linear8" x1="0" y1="0" x2="1" y2="0" gradientUnits="userSpaceOnUse" gradientTransform="matrix(4.40225e-09,98.0524,98.0524,-4.40225e-09,351.255,177.078)"><stop offset="0" style="stop-color:rgb(250,167,65);stop-opacity:1"/><stop offset="0.7" style="stop-color:rgb(241,90,34);stop-opacity:1"/><stop offset="1" style="stop-color:rgb(221,56,38);stop-opacity:1"/></linearGradient>
    </defs>
</svg>
